<?xml version="1.0" encoding="UTF-8" standalone="no"?>
<!-- Created with Inkscape (http://www.inkscape.org/) -->

<svg
   xmlns:dc="http://purl.org/dc/elements/1.1/"
   xmlns:cc="http://creativecommons.org/ns#"
   xmlns:rdf="http://www.w3.org/1999/02/22-rdf-syntax-ns#"
   xmlns:svg="http://www.w3.org/2000/svg"
   xmlns="http://www.w3.org/2000/svg"
   xmlns:sodipodi="http://sodipodi.sourceforge.net/DTD/sodipodi-0.dtd"
   xmlns:inkscape="http://www.inkscape.org/namespaces/inkscape"
   width="177.16171"
   height="177.16476"
   id="svg2"
   version="1.1"
   inkscape:version="0.47 r22583"
   sodipodi:docname="cnbi.svg">
  <defs
     id="defs4">
    <inkscape:perspective
       sodipodi:type="inkscape:persp3d"
       inkscape:vp_x="0 : 526.18109 : 1"
       inkscape:vp_y="0 : 1000 : 0"
       inkscape:vp_z="744.09448 : 526.18109 : 1"
       inkscape:persp3d-origin="372.04724 : 350.78739 : 1"
       id="perspective10" />
    <clipPath
       id="clipPath2855"
       clipPathUnits="userSpaceOnUse">
      <path
         id="path2857"
         d="m 0,0 3819.13,0 0,1417.32 L 0,1417.32 0,0 z" />
    </clipPath>
    <inkscape:perspective
       id="perspective2845"
       inkscape:persp3d-origin="0.5 : 0.33333333 : 1"
       inkscape:vp_z="1 : 0.5 : 1"
       inkscape:vp_y="0 : 1000 : 0"
       inkscape:vp_x="0 : 0.5 : 1"
       sodipodi:type="inkscape:persp3d" />
  </defs>
  <sodipodi:namedview
     id="base"
     pagecolor="#ffffff"
     bordercolor="#666666"
     borderopacity="1.0"
     inkscape:pageopacity="0.0"
     inkscape:pageshadow="2"
     inkscape:zoom="3.3117706"
     inkscape:cx="166.52536"
     inkscape:cy="84.958897"
     inkscape:document-units="px"
     inkscape:current-layer="svg2"
     showgrid="false"
     inkscape:window-width="1680"
     inkscape:window-height="973"
     inkscape:window-x="0"
     inkscape:window-y="25"
     inkscape:window-maximized="1" />
  <metadata
     id="metadata7">
    <rdf:RDF>
      <cc:Work
         rdf:about="">
        <dc:format>image/svg+xml</dc:format>
        <dc:type
           rdf:resource="http://purl.org/dc/dcmitype/StillImage" />
        <dc:title />
      </cc:Work>
    </rdf:RDF>
  </metadata>
  <g
     inkscape:label="Layer 1"
     inkscape:groupmode="layer"
     id="layer1"
     clip-path="none"
     transform="translate(-115.56621,-111.58488)">
    <g
       id="g3355"
       transform="translate(29.893375,-2.7175796)">
      <path
         d="m 89.66583,143.1424 c 4.814937,-4.33625 11.93265,-5.05125 18.1289,-1.82625 0.0376,0.0213 0.0738,0.0438 0.11137,0.0637 3.02338,-0.33 7.05363,-0.7725 10.07763,-1.10375 0.62838,-0.8425 1.48975,-1.995 3.43212,-3.41625 -0.53712,-2.13125 -1.21237,-4.9875 -1.84725,-7.09125 -0.0415,-0.0175 -0.08,-0.0325 -0.12012,-0.0488 -8.89988,-4.05875 -9.15763,-10.65 -0.54238,-13.82875 11.81,-4.3575 26.24213,0.84 23.39738,8.4275 -0.40763,1.08875 -1.15863,1.93375 -1.76125,2.615 -0.0288,0.0275 -0.0575,0.0537 -0.0825,0.0812 0.71875,2.245 1.72362,5.23125 2.32375,7.51375 4.8735,1.92375 10.66012,5.90375 10.54737,13.92875 0.91013,0.63 1.82038,1.26625 2.73,1.91875 22.61625,-5.5 38.1225,16.99013 28.25875,32.65625 -1.35012,2.141 -8.89737,12.6225 -25.07375,8.53513 -0.80362,0.80125 -1.60737,1.6035 -2.41737,2.40725 1.874,10.63762 -3.89113,16.6425 -7.49513,19.27537 0.11375,3.57375 0.27238,8.34225 0.37888,11.916 0.0415,0.0385 0.0825,0.08 0.1225,0.12013 11.06987,12.09712 2.8165,27.67237 -10.64888,27.46725 -13.7725,-0.21 -23.58837,-16.61138 -13.04487,-28.31 0.0361,-0.0361 0.0736,-0.0738 0.10975,-0.10988 -0.0859,-3.52987 -0.2085,-8.23975 -0.27725,-11.7725 -1.93513,-1.4985 -3.07625,-2.669 -4.525,-4.6235 -3.37,-0.11037 -7.86763,-0.249 -11.23875,-0.38137 -0.0375,0.0361 -0.0751,0.0738 -0.11375,0.10987 -10.96,9.8125 -24.97752,0.459 -24.40623,-12.4825 0.533691,-12.121 13.74273,-19.38763 24.45361,-9.60738 0.0337,0.0337 0.0689,0.0689 0.1025,0.1025 3.28612,0.0148 7.66512,0.0386 10.94874,0.0361 3.06738,-4.08875 8.7725,-8.72988 18.54738,-7.61513 0.78512,-0.77887 1.56637,-1.55712 2.34762,-2.336 -1.21087,-3.77875 -1.416,-7.11375 -0.6625,-10.81012 -0.86625,-0.69875 -1.72762,-1.38875 -2.58837,-2.0725 -9.90138,1.59625 -16.02013,-2.905 -18.78425,-5.7325 -3.14113,0.17875 -7.32613,0.4225 -10.46875,0.59125 -0.0312,0.0312 -0.061,0.06 -0.0937,0.0925 -10.56975,9.5115 -23.338364,1.28875 -22.753403,-8.255 0.08594,-1.39875 0.582515,-4.09375 2.932616,-6.435 m 32.496037,1.31875 c -4.90525,0.45875 -11.44237,1.06375 -16.34763,1.515 -5.13225,-5.23875 -14.015107,-1.945 -14.301232,3.7675 -0.32715,6.56 8.800242,9.73125 13.757862,4.78 0.5625,-0.56375 0.892,-1.07375 1.2085,-1.59375 4.98238,-0.34 11.62738,-0.80375 16.61125,-1.1575 3.60988,5.405 10.46637,7.315 17.0625,4.74875 2.895,2.14875 5.81012,4.39875 8.73488,6.74375 -2.08588,4.62387 -1.77738,9.18887 0.94537,13.96225 -2.61287,2.60013 -5.24512,5.22025 -7.88775,7.84912 -7.17475,-2.56399 -14.15137,0.26363 -16.96487,6.875 -5.30663,-0.0439 -12.38038,-0.13137 -17.6865,-0.22262 -4.73875,-7.85112 -14.416017,-5.335 -16.007317,2.15625 -1.717775,8.081 6.459962,14.5 13.058567,10.2485 1.17,-0.75487 2.14012,-1.78225 2.88387,-3.061 5.36613,0.1635 12.52388,0.34863 17.8925,0.46138 0.5865,1.28612 2.36863,5.20212 7.34625,7.36625 0.14012,5.68599 0.35887,13.26612 0.54737,18.95212 -8.25349,4.959 -4.42487,16.5825 3.91401,18.33787 8.64849,1.81838 14.68599,-7.41162 9.64362,-14.74412 -1.24762,-1.8135 -2.69637,-2.73488 -3.47375,-3.23 -0.20263,-5.71725 -0.4565,-13.34475 -0.63525,-19.06488 7.0215,-2.98337 9.80762,-10.06837 6.774,-17.231 2.67875,-2.66649 5.34862,-5.32274 7.99612,-7.959 14.96775,6.84375 27.30363,-5.80762 22.38038,-18.04612 -3.31012,-8.2325 -13.89513,-13.80125 -24.37163,-8.9725 -2.98874,-2.285 -5.97125,-4.4625 -8.94625,-6.53375 2.09613,-6.655 -3.02012,-11.38375 -9.15874,-12.61625 -0.89263,-3.61875 -2.25488,-8.40625 -3.44625,-11.94125 5.04487,-3.13 2.54874,-7.205 -3.03475,-8.3425 -7.145,-1.4575 -15.05125,2.26625 -11.42275,6.74625 0.51112,0.63125 2.07662,2.1725 5.55762,2.83625 1.06,3.46 2.3085,8.12 3.12638,11.6425 -2.02775,0.9475 -4.51513,2.45375 -5.75638,5.72875"
         style="fill:#4fff00;fill-opacity:1;fill-rule:nonzero;stroke:none"
         id="path2859" />
      <path
         d="m 155.01598,126.33365 c 6.04,-5.525 20.20987,-4.4025 27.52625,4.73625 l 0.0801,0.11125 c 9.14363,4.205 9.14363,4.205 15.80375,4.53 0.62838,-1.9025 1.49363,-4.42875 2.05763,-6.35125 -5.91413,-8.03125 -2.83788,-11.36375 3.0625,-10.42375 11.866,1.89125 27.13975,18.5175 20.68725,22.51625 -1.31,0.81125 -3.11625,0.6525 -3.79625,0.59375 l -0.11125,-0.0125 c -0.595,1.9625 -1.36375,4.59 -2.0225,6.53625 2.35125,3.7425 5.67125,10.95125 1.4675,17.1575 1.7125,4.9715 6.735,7.11988 9.57625,11.12863 0.71625,0.0201 1.66875,0.044 2.38375,0.064 2.315,-8.51362 8.02375,-6.7065 9.7175,-5.95012 0.63375,-1.86775 1.5075,-4.34625 2.0775,-6.23375 -3.13125,-9.20125 -1.555,-12.465 1.62,-10.9325 7.90125,3.81375 17.87,28.68137 11.85125,29.5675 -0.62625,0.0899 -1.24875,-0.23475 -1.8525,-0.54875 l -0.065,-0.0386 c -1.59,4.65875 -1.59,4.65875 -1.14875,11.81113 1.21625,2.81975 2.90125,6.55263 3.96625,9.43112 7.755,5.894 5.2125,31.28363 0.305,30.85738 -2.48625,-0.21725 -5.72,-8.42475 -6.00625,-18.29587 l -0.004,-0.15625 c -1.23,-2.6465 -2.81625,-6.20413 -4.1825,-8.78375 -3.92125,0.20999 -7.98,-2.79238 -11.74,-8.68163 -0.67625,-0.002 -1.57625,-0.005 -2.2525,-0.005 -4.30625,17.26513 -23.36263,15.70513 -32.54475,1.65288 -5.51763,-8.44288 -7.02,-21.40625 0.78225,-29.85163 -0.44638,-1.26512 -1.044,-3.25487 -2.23738,-3.87737 -1.65524,-0.86125 -10.06887,-5.67125 -13.20499,-15.6525 -3.20763,-1.615 -7.46638,-3.8075 -10.72125,-5.33375 -14.66013,2.9025 -27.73875,-10.25125 -22.01126,-18.455 0.25,-0.35625 0.63238,-0.8 0.9375,-1.11 m 48.43613,14.9725 c -3.36388,-0.9175 -5.981,-0.67625 -8.2325,0.7575 -5.08738,-2.60125 -12.27975,-5.28875 -17.17475,-8.23 -1.4405,-0.8675 -1.50538,-2.7275 -2.73875,-3.74375 -1.09038,-0.8975 -2.99025,-2.10375 -5.84675,-2.75375 -5.75725,-1.30875 -11.56488,1.465 -10.13325,6.57 1.4145,5.04625 9.70212,9.10625 15.92625,6.19125 5.2085,2.4075 12.07962,5.78375 17.16212,8.4475 0.5615,6.32375 5.88138,12.32 12.9375,14.5825 1.17288,3.27625 2.77875,7.63 3.84275,10.93762 -11.40287,6.66513 -6.30612,27.90725 7.36988,30.71738 6.30625,1.29637 12.96,-2.45363 13.47875,-12.129 2.28,0.003 5.325,-0.0459 7.60375,0.0591 3.4225,7.53125 7.96,9.7925 10.67125,8.13475 2.84125,5.5615 6.72625,13.17875 6.57375,14.94388 -0.6525,7.52 3.02875,17.21625 5.3175,10.96 1.7975,-4.91513 0.78125,-16.6475 -2.845,-16.7525 -6.22625,-16.04738 -6.22625,-16.04738 -6.595,-18.875 -0.3525,-2.69238 -1.10625,-4.73638 -1.43,-5.60988 1.0575,-2.84912 2.38875,-6.67525 3.30375,-9.57025 2.9075,2.664 3.255,0.354 3.27,-0.76125 0.0738,-6.0425 -6.9525,-17.68862 -9.515,-15.77362 -0.0763,0.055 -1.82125,1.46875 1.29375,8.75262 -0.92625,2.9785 -2.265,6.916 -3.34,9.84375 -5.12875,-3.92625 -8.2525,-0.21237 -8.58875,5.27338 -2.3325,-0.0585 -5.4425,-0.17863 -7.7775,-0.14113 -2.605,-5.17862 -6.14625,-8.40862 -10.82625,-9.86862 -1.11375,-3.25875 -2.54625,-7.62125 -3.76875,-10.83875 4.38875,-3.11875 3.8,-9.67375 -1.3975,-15.58375 1.06,-3.11125 2.3875,-7.2875 3.28625,-10.45 5.6225,1.5925 5.665,-1.64 4.32,-4.20375 -3.39875,-6.47875 -14.755,-12.0875 -16.19975,-8 -0.26025,0.735 -0.45025,2.86625 3.36862,6.79625 -0.91262,3.12 -2.24512,7.25125 -3.31737,10.32"
         style="fill:#72ff32;fill-opacity:1;fill-rule:nonzero;stroke:none"
         id="path2861" />
      <path
         d="m 221.41348,219.37215 c 0.5275,-0.517 0.87625,-0.8295 1.435,-1.28363 1.045,0.8965 2.43875,2.09025 3.485,2.98625 0.82125,-0.45362 1.33875,-0.67862 2.21125,-0.955 0.3475,-1.5035 0.8125,-3.50887 1.16125,-5.00975 1.60125,-0.13875 2.885,0.0175 4.4325,0.5375 0.31625,1.55225 0.73875,3.625 1.05625,5.17875 0.73625,0.43513 1.18,0.76125 1.9025,1.40875 0.85625,-0.66112 1.9975,-1.545 2.85375,-2.20762 1.095,1.4425 1.86375,2.79737 2.65375,4.68262 -1.26625,4.12363 -1.26625,4.12363 -0.655,7.30225 0.80625,0.45663 1.88125,1.065 2.68875,1.5215 0.1625,2.11375 0.15875,3.84726 -0.01,5.98101 -0.76625,0.47412 -1.79,1.10637 -2.5575,1.58012 -0.17125,1.11862 -0.3025,1.77237 -0.56375,2.80262 1.52125,4.67338 1.52125,4.67338 -0.7825,8.47863 -0.74875,-0.4615 -1.745,-1.07625 -2.49125,-1.53763 -0.47375,0.59375 -0.86625,1.04251 -1.46375,1.58788 -0.11,1.38325 -0.25625,3.23 -0.3675,4.61088 -1.11625,0.72499 -2.075,1.13762 -3.3125,1.42624 -0.47625,-1.13387 -1.11,-2.64262 -1.585,-3.77249 -0.73125,0.0225 -1.17125,-0.007 -1.88125,-0.13138 -0.65125,1.05913 -1.52,2.47275 -2.1725,3.53275 -1.00625,-0.3535 -2.155,-0.8325 -3.72125,-1.92875 0.0675,-1.40862 0.1575,-3.28362 0.225,-4.69237 -0.675,-0.65763 -1.05875,-1.08638 -1.64125,-1.84125 -1.11125,0.31737 -2.5925,0.74212 -3.70375,1.0625 -1.025,-1.624 -1.72125,-3.05913 -2.40625,-4.95363 0.795,-1.13037 1.855,-2.63375 2.65125,-3.76512 -0.2325,-1.10163 -0.34,-1.82138 -0.43875,-2.96388 -1.1175,-0.69625 -2.60375,-1.6235 -3.71875,-2.31887 0.02,-2.20513 0.23625,-4.03363 0.7175,-6.11625 1.25125,-0.22988 2.92,-0.53213 4.17125,-0.76113 0.39875,-1.08887 0.6775,-1.72375 1.1975,-2.71488 -0.505,-1.48637 -1.1775,-3.47362 -1.6825,-4.9615 0.51,-0.72262 1.2325,-1.68987 2.3125,-2.76362 m 14.6675,29.584 c 7.51375,-8.30763 4.21125,-25.418 -4.9075,-25.42775 -8.97625,-0.01 -14.36625,16.38375 -5.71125,24.98875 2.5525,2.53375 6.86,4.1675 10.61875,0.439"
         style="fill:#ff2166;fill-opacity:1;fill-rule:nonzero;stroke:none"
         id="path2863" />
      <path
         d="m 170.21223,202.22227 c 0.355,-0.34862 0.5215,-0.50737 0.99025,-0.90862 1.26613,0.6 2.95363,1.40125 4.21975,2.00237 0.84375,-0.52975 1.40863,-0.82225 2.32362,-1.20362 0.18263,-1.3525 0.42538,-3.15625 0.60888,-4.50875 1.81887,-0.45125 3.335,-0.60988 5.2325,-0.55125 0.61225,1.26025 1.42875,2.94237 2.0425,4.20112 0.95363,0.17625 1.55275,0.33738 2.56388,0.69625 0.97862,-0.83487 2.28125,-1.94862 3.25887,-2.78362 1.66112,0.8965 2.9175,1.80375 4.32863,3.13525 -0.30138,1.30075 -0.70126,3.03462 -1.0025,4.3335 0.625,0.77637 0.981,1.29875 1.53375,2.23875 1.23874,0.0801 2.89012,0.19 4.12737,0.2715 0.71725,1.77487 1.1235,3.27825 1.40238,5.18987 -0.99363,0.71975 -2.31988,1.68213 -3.3125,2.40488 0.0225,1.0375 -0.009,1.66012 -0.1275,2.66887 0.9,0.91113 2.09775,2.12601 2.99762,3.03713 -0.47362,1.80662 -1.02,3.18162 -1.88137,4.7515 -1.19875,-0.15875 -2.79588,-0.36863 -3.99363,-0.52738 -0.3975,0.53226 -0.88375,1.16263 -1.64362,1.89751 0.1875,1.29637 0.44,3.02737 0.6285,4.32374 -1.42975,1.02726 -2.6675,1.69238 -4.27588,2.29 -0.88287,-0.9375 -2.0625,-2.18512 -2.94387,-3.12012 -0.98238,0.19725 -1.56013,0.2715 -2.47263,0.315 -0.629,1.12737 -1.46487,2.63125 -2.09375,3.75725 -1.8125,-0.17875 -3.24512,-0.50725 -4.95125,-1.13225 -0.1435,-1.32375 -0.33637,-3.08888 -0.48,-4.41125 -0.88125,-0.48625 -1.42137,-0.83488 -2.21775,-1.435 -1.23337,0.44875 -2.87737,1.04737 -4.10837,1.49612 -1.374,-1.36962 -2.34125,-2.59725 -3.335,-4.24125 0.72762,-1.11625 1.69875,-2.605 2.42637,-3.72112 -0.41025,-0.97125 -0.61625,-1.57775 -0.88625,-2.58988 -1.28662,-0.48875 -3.004,-1.13775 -4.29012,-1.624 -0.24113,-1.941 -0.23775,-3.51712 0.009,-5.44637 1.30363,-0.351 3.04338,-0.81975 4.34613,-1.17325 0.27587,-0.96638 0.501,-1.57775 0.9375,-2.51275 -0.73138,-1.21388 -1.7075,-2.835 -2.43988,-4.04738 0.54825,-0.83737 1.27,-1.855 2.48088,-3.06887 m 21.25787,23.15 c 7.67338,-8.46875 0.8125,-20.71 -8.65775,-20.26613 -10.19625,0.4785 -14.01362,13.4785 -6.00637,20.45363 4.399,3.8325 10.70262,3.75237 14.66412,-0.1875"
         style="fill:#ff2166;fill-opacity:1;fill-rule:nonzero;stroke:none"
         id="path2865" />
      <path
         d="m 172.26198,249.2774 c 0.28525,-0.28125 0.57762,-0.5585 0.87013,-0.8325 1.89749,0.7525 4.42537,1.75737 6.32137,2.50975 1.24113,-0.85738 2.07125,-1.33975 3.40762,-1.99213 0.27101,-2.01125 0.63238,-4.69537 0.90388,-6.709 2.7085,-0.8325 4.93112,-1.19625 7.67087,-1.25737 0.85501,1.80375 1.99513,4.2085 2.84913,6.01125 1.38862,0.18262 2.23337,0.36775 3.61325,0.795 1.395,-1.27638 3.25537,-2.98 4.649,-4.25738 2.246,1.17875 3.92225,2.415 5.78512,4.26225 -0.45025,1.84375 -1.04887,4.30275 -1.49762,6.145 0.80762,1.03025 1.26762,1.72413 1.97125,2.96875 1.59862,0.039 3.7275,0.0928 5.32625,0.13275 0.8225,2.31113 1.27625,4.275 1.56875,6.775 -1.24375,0.9785 -2.90125,2.28513 -4.14375,3.26363 0.025,1.294 -0.0125,2.07225 -0.15125,3.335 1.10375,1.0375 2.5775,2.42137 3.6825,3.459 -0.53875,2.1435 -1.145,3.77237 -2.1025,5.62104 -1.45875,-0.0586 -3.40513,-0.14014 -4.86513,-0.20118 -0.69375,0.98878 -1.14012,1.53125 -1.90225,2.31983 0.35888,1.38379 0.83588,3.2251 1.19475,4.60645 -1.6225,1.26465 -3.06975,2.12744 -4.98975,2.97851 -1.25875,-0.85595 -2.9375,-1.99854 -4.19625,-2.85595 -1.22125,0.3584 -1.99662,0.53466 -3.19237,0.71972 -0.64013,1.30127 -1.49275,3.0376 -2.13375,4.33887 -2.4405,0.12891 -4.43413,0.0288 -6.875,-0.34131 -0.44288,-1.43897 -1.03275,-3.35498 -1.47763,-4.79248 -1.30362,-0.40625 -2.11275,-0.72119 -3.3315,-1.29736 -1.66262,0.71875 -3.88137,1.67725 -5.5425,2.39746 -2.73337,-1.63281 -4.41112,-3.26611 -5.56737,-4.50635 0.88625,-1.48877 2.06737,-3.47364 2.95362,-4.96625 -0.73237,-1.16362 -1.11475,-1.90625 -1.63475,-3.17638 -1.95749,-0.46087 -4.56737,-1.07612 -6.52487,-1.53999 -0.60162,-2.53463 -0.76762,-4.66113 -0.57138,-7.33888 1.91113,-0.63962 4.45613,-1.49463 6.36625,-2.13325 0.33988,-1.378 0.63475,-2.25637 1.21625,-3.61375 -1.15625,-1.6475 -2.69625,-3.84525 -3.8515,-5.49025 0.46138,-0.75 1.87013,-3.025 4.20113,-5.3375 m 30.13525,29.13875 c 9.105,-10.0225 1.60887,-26.28513 -11.624,-25.22025 -12.48725,1.00537 -20.23,17.20162 -9.11088,25.94533 6.16213,4.84619 15.46338,4.52099 20.73488,-0.72508"
         style="fill:#ff2166;fill-opacity:1;fill-rule:nonzero;stroke:none"
         id="path2867" />
    </g>
  </g>
</svg>
